HIERARCHY
ROOT SpineBase
{
  OFFSET 0.000000 0.000000 0.000000
  CHANNELS 6 Xposition Yposition Zposition Zrotation Xrotation Yrotation
  JOINT SpineMid
  {
    OFFSET -0.000000 28.392680 -0.000000
    CHANNELS 3 Zrotation Xrotation Yrotation
    JOINT SpineShoulder
    {
      OFFSET 0.351032 21.340891 -0.816111
      CHANNELS 3 Zrotation Xrotation Yrotation
      JOINT Neck
      {
        OFFSET 0.110284 7.079665 -0.612212
        CHANNELS 3 Zrotation Xrotation Yrotation
        JOINT Head
        {
          OFFSET 4.813290 11.327505 2.980268
          CHANNELS 3 Zrotation Xrotation Yrotation
          End Site
          {
            OFFSET 0 0 0
          }
        }
      }
      JOINT ShoulderLeft
      {
        OFFSET -5.133453 -5.607667 -12.320369
        CHANNELS 3 Zrotation Xrotation Yrotation
        JOINT ElbowLeft
        {
          OFFSET 0.147209 -24.069301 -4.916951
          CHANNELS 3 Zrotation Xrotation Yrotation
          JOINT WristLeft
          {
            OFFSET 5.466664 -23.247370 1.878979
            CHANNELS 3 Zrotation Xrotation Yrotation
            JOINT HandLeft
            {
              OFFSET -0.493593 -7.658405 2.144474
              CHANNELS 3 Zrotation Xrotation Yrotation
              JOINT HandTipLeft
              {
                OFFSET 2.083115 -6.333789 0.367696
                CHANNELS 3 Zrotation Xrotation Yrotation
                End Site
                {
                  OFFSET 0 0 0
                }
              }
              JOINT ThumbLeft
              {
                OFFSET -4.655920 0.012429 0.627591
                CHANNELS 3 Zrotation Xrotation Yrotation
                End Site
                {
                  OFFSET 0 0 0
                }
              }
            }
          }
        }
      }
      JOINT ShoulderRight
      {
        OFFSET 11.429763 -1.369827 10.238856
        CHANNELS 3 Zrotation Xrotation Yrotation
        JOINT ElbowRight
        {
          OFFSET 2.925201 -23.088195 5.111628
          CHANNELS 3 Zrotation Xrotation Yrotation
          JOINT WristRight
          {
            OFFSET -7.379679 -14.782636 -18.806202
            CHANNELS 3 Zrotation Xrotation Yrotation
            JOINT HandRight
            {
              OFFSET -1.799656 -0.641631 -3.388604
              CHANNELS 3 Zrotation Xrotation Yrotation
              JOINT HandTipRight
              {
                OFFSET -2.317145 -2.606066 -3.319295
                CHANNELS 3 Zrotation Xrotation Yrotation
                End Site
                {
                  OFFSET 0 0 0
                }
              }
              JOINT ThumbRight
              {
                OFFSET 1.467180 -5.351788 0.623777
                CHANNELS 3 Zrotation Xrotation Yrotation
                End Site
                {
                  OFFSET 0 0 0
                }
              }
            }
          }
        }
      }
    }
  }
  JOINT HipLeft
  {
    OFFSET -3.376113 1.499571 -5.384306
    CHANNELS 3 Zrotation Xrotation Yrotation
    JOINT KneeLeft
    {
      OFFSET -5.106750 -30.370460 0.395461
      CHANNELS 3 Zrotation Xrotation Yrotation
      JOINT AnkleLeft
      {
        OFFSET -7.619284 -26.306057 3.882030
        CHANNELS 3 Zrotation Xrotation Yrotation
        JOINT FootLeft
        {
          OFFSET 6.969110 -4.246994 -7.888755
          CHANNELS 3 Zrotation Xrotation Yrotation
          End Site
          {
            OFFSET 0 0 0
          }
        }
      }
    }
  }
  JOINT HipRight
  {
    OFFSET 2.828158 0.726141 -1.326707
    CHANNELS 3 Zrotation Xrotation Yrotation
    JOINT KneeRight
    {
      OFFSET -16.144213 -29.053658 5.200386
      CHANNELS 3 Zrotation Xrotation Yrotation
      JOINT AnkleRight
      {
        OFFSET -6.614503 -26.542704 8.688187
        CHANNELS 3 Zrotation Xrotation Yrotation
        JOINT FootRight
        {
          OFFSET 3.092518 -4.055409 -14.261118
          CHANNELS 3 Zrotation Xrotation Yrotation
          End Site
          {
            OFFSET 0 0 0
          }
        }
      }
    }
  }
}
MOTION
Frames: 6
Frame Time: 0.033333
47.751079 70.401418 362.581796 0.000000 -0.000000 -33.184718 -0.000000 0.000000 33.184718 -0.000000 0.000000 0.000000 -0.000000 0.000000 0.000000 0.000000 0.000000 0.000000 -0.000000 0.000000 0.000000 -0.000000 0.000000 0.000000 -0.000000 0.000000 0.000000 -0.000000 0.000000 0.000000 0.000000 0.000000 0.000000 0.000000 0.000000 0.000000 -0.000000 0.000000 0.000000 -0.000000 0.000000 0.000000 -0.000000 0.000000 0.000000 -0.000000 0.000000 0.000000 0.000000 0.000000 0.000000 0.000000 0.000000 0.000000 -0.000000 0.000000 33.184718 -0.000000 0.000000 0.000000 -0.000000 0.000000 0.000000 0.000000 0.000000 0.000000 -0.000000 0.000000 33.184718 -0.000000 0.000000 0.000000 -0.000000 0.000000 0.000000 0.000000 0.000000 0.000000
47.264122 70.787552 362.648155 -0.900875 -0.338883 -34.468008 0.550985 0.789204 34.461549 -0.000000 0.000000 0.000000 0.616576 0.884073 -0.542783 0.000000 0.000000 0.000000 -0.000000 0.000000 0.000000 -1.549115 0.724598 0.055177 0.784192 0.701358 -0.342929 -4.050645 2.131179 1.260095 0.000000 0.000000 0.000000 0.000000 0.000000 0.000000 -0.000000 0.000000 0.000000 -0.000000 0.000000 0.000000 1.666306 -3.322524 0.706196 3.878059 -3.726258 -1.599826 0.000000 0.000000 0.000000 0.000000 0.000000 0.000000 0.550985 0.789204 34.461549 -0.000000 0.000000 0.000000 -0.000000 0.000000 0.000000 0.000000 0.000000 0.000000 0.550985 0.789204 34.461549 2.124881 1.075652 0.410761 -0.902046 3.253041 -1.272254 0.000000 0.000000 0.000000
46.819311 71.033392 362.691301 -1.677208 -0.633609 -35.272598 1.003764 1.485616 35.250309 -0.000000 0.000000 0.000000 1.197445 1.632865 -1.026691 0.000000 0.000000 0.000000 -1.307542 -0.096287 0.265496 -1.582994 1.473197 -0.139465 1.828288 1.124695 -0.519351 -7.511834 4.255748 2.420990 0.000000 0.000000 0.000000 0.000000 0.000000 0.000000 -0.000000 0.000000 0.000000 -0.000000 0.000000 0.000000 3.190997 -6.229524 1.271551 7.090442 -7.155888 -2.752380 0.000000 0.000000 0.000000 0.000000 0.000000 0.000000 1.973614 2.416755 35.200702 -1.328849 -0.201705 0.014245 -0.000000 0.000000 0.000000 0.000000 0.000000 0.000000 1.003764 1.485616 35.250309 3.818755 1.858437 0.735326 -1.394064 6.309800 -2.495952 0.000000 0.000000 0.000000
46.416646 71.138937 362.711235 -2.320374 -0.880933 -35.577195 1.375660 2.065946 35.534549 -0.000000 0.000000 0.000000 1.728336 2.228429 -1.437184 0.000000 0.000000 0.000000 -1.880745 -0.121517 0.381621 -2.130318 2.062586 -0.179704 3.162137 1.205346 -0.514179 -10.112893 6.335083 3.399626 0.000000 0.000000 0.000000 0.000000 0.000000 0.000000 -0.000000 0.000000 0.000000 -0.000000 0.000000 0.000000 4.529948 -8.681307 1.646710 9.341725 -9.640551 -3.460841 0.000000 0.000000 0.000000 0.000000 0.000000 0.000000 2.733609 3.510919 35.428318 -1.943075 -0.389903 0.033549 -0.000000 0.000000 0.000000 0.000000 0.000000 0.000000 0.303558 2.230256 35.016812 5.867157 1.661010 1.626451 -1.591886 8.967010 -3.613003 0.000000 0.000000 0.000000
46.056126 71.104187 362.707955 -2.824181 -1.078523 -35.371756 1.534997 1.668629 35.300368 0.606589 0.605515 0.010035 2.195769 2.655893 -1.760892 0.000000 0.000000 0.000000 -2.399067 -0.130901 0.486792 -2.492157 2.541475 -0.210695 4.796325 0.900814 -0.312947 -11.688540 8.363694 4.108781 0.000000 0.000000 0.000000 0.000000 0.000000 0.000000 -0.000000 0.000000 0.000000 -0.000000 0.000000 0.000000 5.644563 -10.653356 1.785232 10.559157 -10.862550 -3.781178 0.000000 0.000000 0.000000 0.000000 0.000000 0.000000 3.389048 4.500884 35.129200 -2.539289 -0.641409 0.060338 -0.000000 0.000000 0.000000 0.000000 0.000000 0.000000 0.279722 2.953639 34.569167 6.881749 1.515655 2.150574 -1.608784 11.070933 -4.562980 0.000000 0.000000 0.000000
45.737752 70.929144 362.681463 -3.184960 -1.224977 -34.656792 1.631563 1.750652 34.566400 0.847232 0.711687 0.015437 2.587916 2.904082 -1.986496 0.000000 0.000000 0.000000 -2.861846 -0.124102 0.581102 -2.652624 2.901731 -0.239160 6.717286 0.197888 0.097784 -12.150887 10.332173 4.454908 0.000000 0.000000 0.000000 0.000000 0.000000 0.000000 -0.000000 0.000000 0.000000 -0.000000 0.000000 0.000000 6.503086 -12.129812 1.645395 10.804098 -10.779808 -3.742283 0.000000 0.000000 0.000000 0.000000 0.000000 0.000000 3.968238 5.379353 34.308582 -2.749622 -1.817339 0.406875 -0.372689 0.856820 -0.300434 0.000000 0.000000 0.000000 0.214310 3.665030 33.581594 7.470374 1.019194 2.691976 -1.542293 12.519042 -5.290209 0.000000 0.000000 0.000000
